:SAMPLES-PER-SECOND 30
:FRAME-RANGE 1-564
:FULLY-SPECIFIED
:DEGREES
459
root  29.1465 37.4663 -117.2 -179.586 33.021 177.661
RightUpLeg  8.25004 3.56468 -0.976842
RightLeg  22.3791 3.68492 1.45351
RightFoot  -20.5167 -0.258414 -1.49063
RightToes  1.21801e-010 1.2921e-014 -6.02303e-014
Spine  -9.25708 -0.569482 0.360319
Spine1  11.1217 -0.01445 -3.11935
HEad  12.7183 26.0334 -1.03935
LeftShoulder1  0.57365 1.11049 -19.9043
LeftArm  -6.50651 12.4415 -53.9188
LeftForeArm  30.4425 3.9406 -11.5323
LeftHand  -0.0313253 5.09052 2.63914
RightShoulder  1.67566 1.57536 28.3722
RightArm  -22.7412 7.77712 53.8702
RightForeArm  63.4064 -5.73363 4.6146
RightHand  0.173115 -6.63155 -17.5526
LeftUpLeg  -18.5434 -1.41889 -5.46829
LeftLeg  5.80656 30.4345 4.47236
LeftFoot  3.57613 0.1392 -1.22916
LeftToes  1.70735e-010 3.74918e-011 3.68705e-011
460
root  29.6308 37.4297 -118.086 179.914 32.697 176.774
RightUpLeg  7.63928 4.13679 -1.69466
RightLeg  26.8423 3.88211 1.91202
RightFoot  -19.6012 -0.10123 0.43514
RightToes  1.21801e-010 1.2921e-014 -6.02303e-014
Spine  -9.70157 -0.683391 -1.04801
Spine1  11.1812 -0.0477153 -3.46959
HEad  11.644 27.35 -1.27155
LeftShoulder1  0.514079 1.3554 -20.1482
LeftArm  -5.89131 13.3098 -53.4102
LeftForeArm  29.557 3.72561 -11.775
LeftHand  -0.0258051 5.00779 2.82927
RightShoulder  1.58514 1.24465 28.8809
RightArm  -22.415 6.89099 53.6696
RightForeArm  64.8352 -5.72558 4.87777
RightHand  0.209722 -6.90974 -17.2053
LeftUpLeg  -17.9897 -1.33115 -6.32164
LeftLeg  7.69411 29.6202 5.04976
LeftFoot  4.61011 0.159183 -1.33616
LeftToes  1.70735e-010 3.74918e-011 3.68705e-011
461
root  30.0501 37.4062 -119.002 179.722 31.6588 176.112
RightUpLeg  5.75541 3.14578 -2.93628
RightLeg  33.092 5.44346 3.57287
RightFoot  -17.2138 0.0237321 2.7353
RightToes  1.21801e-010 1.2921e-014 -6.02303e-014
Spine  -10.455 -0.941809 -1.96276
Spine1  11.5191 -0.280814 -3.87088
HEad  10.27 29.0723 -2.35728
LeftShoulder1  0.542706 1.25857 -20.3103
LeftArm  -6.03256 13.7942 -53.3708
LeftForeArm  29.7026 3.9986 -11.7608
LeftHand  -0.0241715 5.04631 2.82965
RightShoulder  1.50802 1.03475 28.7764
RightArm  -23.7142 5.08782 54.0595
RightForeArm  66.2302 -5.57335 4.26681
RightHand  0.252984 -7.17593 -17.4521
LeftUpLeg  -17.463 -1.34022 -7.43387
LeftLeg  9.18135 27.9592 5.12513
LeftFoot  5.13988 -0.621818 4.07614
LeftToes  1.70735e-010 3.74918e-011 3.68705e-011
462
root  30.3955 37.3575 -119.869 179.398 30.3899 175.528
RightUpLeg  2.56394 0.450142 -5.1049
RightLeg  41.5003 7.79106 7.05703
RightFoot  -12.8191 -0.0209879 5.11547
RightToes  1.21801e-010 1.2921e-014 -6.02303e-014
Spine  -10.4125 -0.973361 -2.67921
Spine1  11.3884 -0.38154 -4.09443
HEad  9.45445 30.9541 -3.80734
LeftShoulder1  0.651659 0.861545 -20.4722
LeftArm  -6.35229 13.6323 -53.7596
LeftForeArm  30.2827 4.53429 -11.6698
LeftHand  -0.0240842 5.19953 2.86675
RightShoulder  1.42405 0.854686 28.2355
RightArm  -24.918 2.9885 54.2257
RightForeArm  66.7681 -5.46715 3.74763
RightHand  0.268519 -7.32739 -17.0683
LeftUpLeg  -16.8791 -1.51487 -8.56204
LeftLeg  11.0507 26.429 5.64319
LeftFoot  4.28535 -0.83874 5.91693
LeftToes  1.70735e-010 3.74918e-011 3.68705e-011
463
root  30.7286 37.2885 -120.712 178.837 29.1131 174.686
RightUpLeg  -1.53725 -1.65641 -7.42081
RightLeg  50.7586 8.27253 10.3822
RightFoot  -6.87365 -0.346545 7.67193
RightToes  1.21801e-010 1.2921e-014 -6.02303e-014
Spine  -10.333 -0.880989 -3.54026
Spine1  11.4704 -0.328238 -4.38539
HEad  8.95533 32.8529 -5.0922
LeftShoulder1  0.678632 0.762146 -20.4922
LeftArm  -7.61496 13.0748 -54.4413
LeftForeArm  32.1234 4.67024 -11.1955
LeftHand  -0.0270351 5.35983 2.69267
RightShoulder  1.40127 0.830611 27.8698
RightArm  -25.8539 0.867091 53.9816
RightForeArm  66.9587 -5.40334 3.40734
RightHand  0.272749 -7.3874 -16.8294
LeftUpLeg  -16.0835 -1.51446 -9.80522
LeftLeg  12.9111 25.0647 5.99028
LeftFoot  2.32394 -0.726559 5.94044
LeftToes  1.70735e-010 3.74918e-011 3.68705e-011
464
root  31.0724 37.207 -121.498 178.269 27.6406 173.904
RightUpLeg  -6.22292 -2.29345 -8.9147
RightLeg  59.3902 6.79618 11.7949
RightFoot  0.400633 -1.18129 11.4789
RightToes  1.21801e-010 1.2921e-014 -6.02303e-014
Spine  -9.72307 -0.801722 -4.34693
Spine1  11.0434 -0.274999 -4.70604
HEad  8.19777 35.0354 -6.37096
LeftShoulder1  0.605895 1.04683 -20.6443
LeftArm  -5.59031 11.5515 -54.3333
LeftForeArm  30.6093 4.53588 -11.8798
LeftHand  -0.0248313 5.34068 2.81736
RightShoulder  1.37438 0.711637 28.2098
RightArm  -25.9548 -0.614294 53.0164
RightForeArm  66.673 -5.42918 3.49821
RightHand  0.305341 -7.51896 -17.5129
LeftUpLeg  -15.1067 -1.16021 -10.8452
LeftLeg  14.4977 23.4893 5.84451
LeftFoot  0.506041 -0.720739 6.90782
LeftToes  1.70735e-010 3.74918e-011 3.68705e-011
465
root  31.4264 37.0885 -122.225 177.759 25.4657 173.263
RightUpLeg  -10.5043 -2.55961 -9.51195
RightLeg  66.031 4.60531 10.6483
RightFoot  4.54857 -1.60168 11.6639
RightToes  1.21801e-010 1.2921e-014 -6.02303e-014
Spine  -9.14592 -0.953132 -5.41421
Spine1  10.9767 -0.526501 -4.82791
HEad  7.17226 37.4133 -7.94894
LeftShoulder1  0.557236 1.237 -20.766
LeftArm  -5.35394 10.1811 -54.383
LeftForeArm  30.5364 3.61777 -11.8525
LeftHand  -0.0314419 5.17558 1.9014
RightShoulder  1.3276 0.519769 28.7092
RightArm  -26.3681 -1.43362 52.0836
RightForeArm  67.616 -5.36177 3.3064
RightHand  0.357423 -7.78982 -18.0246
LeftUpLeg  -14.2974 -0.808994 -11.7995
LeftLeg  16.3879 21.1207 5.65802
LeftFoot  -1.59597 -0.641922 7.63097
LeftToes  1.70735e-010 3.74918e-011 3.68705e-011
466
root  31.7818 36.9993 -122.944 177.647 22.2392 173.033
RightUpLeg  -13.7203 -2.91843 -9.66207
RightLeg  69.8956 3.07151 8.54095
RightFoot  1.11566 -1.07586 9.90454
RightToes  1.21801e-010 1.2921e-014 -6.02303e-014
Spine  -8.80466 -1.35536 -6.26274
Spine1  11.0078 -1.10226 -4.65363
HEad  6.40487 39.5862 -9.6884
LeftShoulder1  0.605766 1.06208 -20.8331
LeftArm  -5.26298 8.92307 -54.6086
LeftForeArm  30.2951 2.23964 -11.7632
LeftHand  -0.0325351 5.25042 1.95831
RightShoulder  1.2533 0.307466 28.6786
RightArm  -27.5195 -2.41941 51.6854
RightForeArm  68.6904 -5.21418 2.6685
RightHand  0.395104 -8.0561 -17.887
LeftUpLeg  -13.3083 -1.0164 -12.6568
LeftLeg  17.7522 18.35 5.63228
LeftFoot  -3.38175 -0.490216 7.32918
LeftToes  1.70735e-010 3.74918e-011 3.68705e-011
467
root  32.1287 36.9813 -123.622 177.829 18.171 173.408
RightUpLeg  -16.2681 -3.1925 -9.17994
RightLeg  70.6735 1.93569 5.3627
RightFoot  -2.60565 -0.627843 7.97391
RightToes  1.21801e-010 1.2921e-014 -6.02303e-014
Spine  -8.26069 -1.80189 -6.41859
Spine1  10.7773 -1.69063 -4.41848
HEad  6.4172 40.9035 -10.9429
LeftShoulder1  0.744063 0.514865 -20.4719
LeftArm  -4.93908 7.27537 -55.341
LeftForeArm  29.9513 1.05307 -11.7771
LeftHand  -0.0269919 4.9958 2.25824
RightShoulder  1.17425 0.0823486 28.6338
RightArm  -28.7219 -3.66677 51.3584
RightForeArm  68.8291 -5.10291 2.03818
RightHand  0.412167 -8.21417 -17.6154
LeftUpLeg  -12.1422 -0.958959 -12.771
LeftLeg  18.5165 14.4121 4.7866
LeftFoot  -4.92942 -0.414953 7.92606
LeftToes  1.70735e-010 3.74918e-011 3.68705e-011
468
root  32.5056 36.981 -124.294 178.051 13.8586 173.786
RightUpLeg  -18.3034 -2.77116 -8.89855
RightLeg  68.8713 1.11501 2.4761
RightFoot  -5.53454 -0.384253 6.82419
RightToes  1.21801e-010 1.2921e-014 -6.02303e-014
Spine  -7.85415 -2.06533 -6.71755
Spine1  10.7036 -2.11044 -3.80505
HEad  7.01149 41.2714 -11.7296
LeftShoulder1  0.826892 0.181871 -20.2692
LeftArm  -4.4123 5.06257 -56.2749
LeftForeArm  30.2609 -0.0308288 -11.8379
LeftHand  -0.0315068 4.94975 1.74878
RightShoulder  1.1235 -0.0607813 28.5867
RightArm  -29.1654 -4.94821 50.7382
RightForeArm  68.3601 -5.09209 1.86768
RightHand  0.403389 -8.2249 -17.2219
LeftUpLeg  -10.9 -0.710408 -12.5786
LeftLeg  19.1201 10.261 3.6133
LeftFoot  -6.43775 -0.266946 7.13175
LeftToes  1.70735e-010 3.74918e-011 3.68705e-011
469
root  32.8959 36.9844 -124.964 178.301 9.46141 174.008
RightUpLeg  -19.6896 -1.68221 -9.24882
RightLeg  64.7348 0.580791 0.761972
RightFoot  -8.90978 -0.175118 5.39298
RightToes  1.21801e-010 1.2921e-014 -6.02303e-014
Spine  -7.55848 -2.14977 -6.73834
Spine1  10.5129 -2.14879 -3.77593
HEad  7.9927 41.5418 -11.9216
LeftShoulder1  0.963885 -0.412393 -19.6859
LeftArm  -3.70356 2.93495 -57.4588
LeftForeArm  30.9706 -1.04371 -11.9833
LeftHand  -0.0279548 4.87205 2.12916
RightShoulder  1.09688 -0.163642 28.8749
RightArm  -29.8665 -6.38597 50.0674
RightForeArm  68.9338 -5.01417 1.53632
RightHand  0.365102 -8.07113 -16.5964
LeftUpLeg  -9.67353 -0.664537 -12.3057
LeftLeg  19.4551 6.01397 2.39664
LeftFoot  -7.69105 -0.151513 6.20333
LeftToes  1.70735e-010 3.74918e-011 3.68705e-011
